<svg width="57" height="37" viewBox="0 0 57 37" fill="none" xmlns="http://www.w3.org/2000/svg">
<g clip-path="url(#clip0_588_160)">
<path d="M21.4765 28.9049C21.1054 27.6528 20.919 26.2206 20.919 24.0919V13.0162C20.919 7.04149 17.7484 4.14233 11.2289 4.14233C7.57297 4.14233 4.24149 5.17514 1.60465 6.92268L3.83294 11.1937C5.96892 9.90409 7.89743 9.31457 9.87804 9.31457C11.8586 9.31457 14.246 9.95345 14.246 13.0171V13.3443L10.3231 13.4814C3.85488 13.7008 0.141357 16.6255 0.141357 21.5154C0.141357 26.4052 3.44998 29.4003 8.17985 29.4003C10.8066 29.4003 13.0185 28.6079 14.9543 26.9691C15.4424 28.2587 16.0648 28.9049 17.6835 28.9049H21.4765ZM14.2469 22.7364C13.1803 23.6285 11.8413 24.0827 10.282 24.0827C8.0519 24.0827 6.72205 22.9613 6.72205 21.0657C6.72205 19.8748 7.17447 18.278 11.1393 18.1555L14.2469 18.0632V22.7374V22.7364Z" fill="white"/>
<path d="M43.4762 28.836H46.7921C48.1679 28.836 48.7778 28.9499 49.1616 29.1234C48.5727 27.2954 46.7167 25.8706 40.176 25.3816C41.2206 26.5909 42.3177 27.7493 43.4744 28.836H43.4762Z" fill="white"/>
<path d="M40.176 25.3834C33.8281 18.0067 29.5518 8.56897 27.8377 0.705078C27.8377 0.705078 24.3483 3.78263 24.0714 10.255C23.7647 17.3284 27.5591 24.4597 40.0551 25.3693C40.0954 25.3763 40.1374 25.3763 40.176 25.3816V25.3834Z" fill="white"/>
<path d="M43.4744 28.836C38.5478 28.836 30.0425 28.836 30.0425 28.836C30.2212 29.2531 30.8364 29.5458 32.2367 29.6282C40.6211 30.1259 41.8077 36.7051 53.8077 36.7051C54.861 36.7051 55.5182 36.642 56.1824 36.5176C51.4399 35.0594 47.1811 32.3184 43.4744 28.8342V28.836Z" fill="white"/>
</g>
<defs>
<clipPath id="clip0_588_160">
<rect width="56.0412" height="36" fill="white" transform="translate(0.141357 0.705078)"/>
</clipPath>
</defs>
</svg>
